<?xml version="1.0" encoding="UTF-8"?><svg id="Capa_1" xmlns="http://www.w3.org/2000/svg" viewBox="0 0 256 201.89"><path d="M216.31,122.27c-.47-3.96-.28-14.8-.57-17.35-.28-2.55-.75-17.72-.94-19.99-.19-2.26-1.98-13.39-2.26-15.18-.28-1.79-.57-5.47-1.04-6.88s-.47-5.28-3.3-7.26c-2.83-1.98-10.46-1.23-10.46-1.23,0,0-4.05.75-4.15.38-.09-.38,1.41-3.39-1.32-6.79-2.73-3.39-7.16-3.68-9.14-3.39s-6.88,3.11-6.88,3.11c0,0-5.85,5.28-5.94,5.56s-1.6,1.51-1.6,1.51l-7.45.38h-2.92s.19-5.09,0-7.35c-.19-2.26-1.7-7.26-6.79-10.84-5.09-3.58-12.73.57-12.73.57,0,0-5.09,3.68-6.41,7.92s-.85,7.54-.85,7.54l1.23,3.77s.38.75.38,1.23-2.55,1.04-5.09,4.71c-2.55,3.68-2.55,4.43-2.55,6.22s.57,3.49.66,3.96c.09.47.09,1.23-.38,1.23s-9.52,6.79-10.37,7.73-1.41,4.34-1.51,5.47c-.09,1.13,2.36,13.29,3.11,14.99.75,1.7,1.98,2.17,2.64,2.26.66.09.66,0,.75.57.09.57,1.04,16.31,1.04,16.31l-.66.38s-1.13-.19-1.6.38.09,1.41.47,1.41,1.41.28,1.41.28l1.89,12.07-11.22.57s-.75-2.45-1.13-6.79c-.38-4.34-.85-17.25-.85-17.25,0,0-.28-4.15-.57-4.53-.28-.38-1.23-.94-2.36-.94s-12.73.19-12.73.19l-1.32.09s-1.23-.38-1.89-.28c-.66.09-1.23.57-1.51.38s1.6-2.17,3.11-5c1.51-2.83,2.83-7.73,1.79-9.52s-4.05,0-4.9.57c-.85.57-3.68,3.39-5.09,5.56-1.41,2.17-5,7.38-5,7.38l-1.23,1.67h-1.23s1.04-6.6,1.23-9.43c.19-2.83-.19-6.69-2.07-8.67s-5.19,1.32-5.66,3.02-1.32,3.58-1.6,6.32c-.28,2.73.47,5.85.19,5.94s-3.87-4.05-7.35-5.19-6.79-1.7-7.26-.57c-.47,1.13-.57,3.02-.19,3.68.38.66,2.36,3.3,3.49,4.71,1.13,1.41,3.11,3.39,3.11,3.39,0,0-6.03,5.66-8.48,8.39s-6.32,8.11-6.6,8.77c-.28.66-.38,4.53-.38,4.53,0,0-.09,23.57,0,24.61.09,1.04.75,11.5.94,13.1.19,1.6,1.23,5.37,1.23,5.75s.47.85,3.21.85h10.09s11.69-.85,14.14-1.32,12.63-1.13,13.39-1.23c.75-.09,1.89-.09,2.92-.75,1.04-.66,5.19-.85,5.56-1.13.38-.28,1.41-1.13,1.41-1.13l.94-1.23s2.92-3.39,3.21-3.39-.28,1.04,0,1.41c.28.38-.38,3.02.66,3.3,1.04.28,20.36-.47,20.36-.47,0,0,22.15-.66,23.47-.94,1.32-.28,4.71-.47,5-1.51.28-1.04.19-.47.28-1.04.09-.57,4.81-.94,6.79-1.23,1.98-.28,3.3-.47,3.87-1.23.57-.75-.66-4.53-.66-4.53l-.94-3.02s2.07.28,2.45.28,8.77-.47,12.92-1.79c4.15-1.32,9.24-3.58,12.26-5.09s10.75-6.98,10.75-6.98c0,0,9.14-6.03,10.84-7.26s4.62-4.71,5.19-6.98c.57-2.26,1.23-3.77.75-7.73ZM207.73,58.59s.49.07.64.35,1.48,4.45,1.77,7.42c.28,2.97.14,3.46-.42,4.38s-6.29,5.94-6.65,6.08c-.35.14-1.34,1.48-1.41.71-.07-.78-2.97-7.78-3.54-8.86s.14-1.53.42-1.93,2.62-2.36,2.62-2.36c0,0,3.46-2.76,4.67-4.03,1.2-1.27,1.91-1.77,1.91-1.77ZM192.18,56.66c.7-.71,8.11-.48,8.11-.48,0,0,5.94.57,5.85,1.12-.09.55-2.55,3.03-2.55,3.03,0,0-5.75,4.62-6.32,5.09-.57.47-7.82-.19-8.73-.57-.9-.38-3.34.28-3.53,0-.19-.28-.09-.38,0-.75.09-.38,7.16-7.44,7.16-7.44ZM161.72,71.55c-.05-.32,4.24,1.08,6.22,1.51,1.98.42,4.62-.14,8.63-.8,4.01-.66,7.73-2.73,8.06-2.73s.52.05.8.46c.28.41-.05,4.07-.53,5.48s-2.3,3.39-2.91,3.91c-.61.52-1.89.75-3.21.99-1.32.24-3.21.47-6.79-.57-3.58-1.04-8.67-4.24-9.76-4.95-1.08-.71-.52-.47-.52-.47l.28-.85-.28-1.98ZM163.61,70.33l.24-.34s10.09-1.45,11.36-1.71,7.92-1.58,11.17-1.53c3.25.05,4.38,1.41,3.91,1.48-.47.06-1.13-.3-2.31-.44-1.18-.14-4.01.52-6.18,1.08-2.17.57-6.08,1.6-7.49,1.83-1.41.23-2.26.71-3.02.71s-4.71-.42-5.85-.52c-1.13-.09-1.84-.57-1.84-.57ZM186.24,75.75c.85-1.89.82-5.28.82-5.28l-.53-1.39s1.18-.4,1.7-.4,1.76.9,2.18.85c.42-.05.56.8.37,1.41s-.85,4.01-3.54,6.22c-2.69,2.22-4.05,2.59-3.96,2.22.09-.38,2.12-1.74,2.97-3.63ZM176.48,50.05c4.88-3.87,6.08-3.83,9.05-3.55,2.97.28,7.52,2.62,5.23,8.41-2.28,5.79-12.09,11.03-12.73,11.31s-4.88.99-7,1.06c-2.12.07-7.92,1.06-8.34.92s.42-.57.42-.57c0,0,6.65-1.63,10.25-3.11,3.61-1.48,7.53-4.69,7.53-4.69,0,0,4.98-2.94,6.68-7.18s-3.25-3.68-3.25-3.68c-1.27.07-8.13,6.08-9.9,7.99-1.77,1.91-5.52,4.81-6.72,5.8-1.2.99-3.61,2.83-3.61,2.83l-3.25,1.2c-.47.18,6.79-8.55,6.79-8.55,0,0,3.96-4.32,8.84-8.19ZM183.48,56.66s-.21.3-.78.64c-.57.34-9.05,5.95-9.62,6.36-.57.41-4.24,1.29-4.95,1.29s-.99,0-.92-.42c.07-.42,7.49-6.29,7.49-6.29,0,0,.71-.85,1.39-.94.69-.08,7.37-.64,7.37-.64ZM183.26,50.67c.49-.28,2.62-.57,3.04,0s-.07,2.4-.35,2.9c-.28.49-1.48,1.56-1.48,1.56l-6.79.49c-.48.03,5.09-4.67,5.58-4.95ZM158.66,63.4c.21-1.2,0-6.09,0-6.09-.04-.96,8.24-.55,8.24-.55,0,0,.07.21-1.24,1.45-1.31,1.24-6.51,9.16-6.91,9.51-.4.35-.66.71-.59.51.07-.2.28-3.62.49-4.82ZM159.51,71.17c.49.57,0,2.4,0,3.18s-1.2,1.27-2.9,1.06c-1.7-.21-2.05-1.48-2.05-2.26s1.48-3.02,1.48-3.02c1.84-.54,2.97.47,3.46,1.04ZM146.23,37.71c3.92.09,5.22,1.98,7.77,5.28,2.55,3.3,2.45,9.24,2.45,10.46s.47,3.96.53,5.75c.05,1.79-.53,8.3-.53,8.3,0,0-.19,1.04-.85,1.32s-1.13,1.32-1.13,1.32c-.75-.47-1.32-11.41-1.32-12.44s-.66-6.51-.74-9.43c-.08-2.92-5.38-7.45-6.8-7.82-1.41-.38-4.15.28-4.71.28s-2.55-.19-2.55-.19c0,0,3.96-2.92,7.88-2.83ZM150.46,57.69s-4.95,3.3-5.19,3.39c-.24.09-.57.14-.8,0s-3.25-2.45-4.12-5.8-.55-6.98,0-9.33c.55-2.36,3.74-2.92,3.74-2.92,1.93-.24,3.63,1.89,5.19,5.28,1.56,3.39,1.18,9.38,1.18,9.38ZM150.79,59.83s.33.12.42.36c.09.24.85,7.35.66,7.31-.19-.05-5.14-4.67-5.14-4.67,0,0-.8-.46-.24-.8.13-.08,4.29-2.2,4.29-2.2ZM149.96,69.98s1.7,1.76,1.94,2.18c.24.42-2.36.64-2.8.56s-6.98,1.28-8.33,1.37c-1.34.09-3.89-1.5-4.78-2.42-.89-.92-.67-3.75-.31-4.17.35-.42,3.11-2.9,7.14-1.56,4.03,1.34,7.14,4.04,7.14,4.04ZM133.63,49.02s.85-4.15,3.14-5.66c2.29-1.51,4.73-1.51,4.73-1.51-.05.57-2.68,3.96-3.16,5.09-.47,1.13-.38,4.71,0,7.92.38,3.21,1.04,3.58.57,3.3s-1.6,0-2.14,0h-1.61c-.35,0-1.25-1.79-1.54-4.24s0-4.9,0-4.9ZM129.2,65.24c1.32-3.77,5.75-5,7.57-5.37,1.82-.38,8.17,3.3,8.26,3.87.09.57-.47.75-.47.75l-4.62-.75s-4.43.28-6.22,2.45c-1.79,2.17-1.51,5.56,3.05,8.66,4.56,3.1,11.28-.08,12.41,0,1.13.08,3.39-1.02,3.21,0-.19,1.02-1.51.86-2.36,1.62-.85.75-1.89,1.09-1.89,1.09,0,0-2.36.89-7.64,1.18-5.28.28-3.96-.38-7.16-1.18s-4.94-6.65-4.94-6.65c0,0-.52-1.89.8-5.66ZM124.11,124.35c7.73,0,9.62-3.21,11.78-5.85s2.92-6.98,2.55-9.44c-.38-2.46-.47-4.66-.47-4.66,0,0,.75.05,1.79,0,1.04-.05,2.55,0,2.55,0,0,0,.38,1.93.28,2.78-.09.85,1.98,11.31,2.17,12.35.19,1.04,1.79,13.2,1.41,13.76-.38.57-2.17.19-2.17.19,0,0-6.13.47-6.79.57-.66.09-10.28,1.7-11.5,1.7s-1.04-1.23-1.04-1.98-.57-9.43-.57-9.43ZM142.02,102.19h-5c-.57,0,0-1.13,0-1.89s.47-5.85,1.13-8.39c.66-2.55,6.22-6.03,6.22-6.03.5-.33,1.85-.47,1.85-.47,0,0-2.79,6.32-3.55,8.81-.75,2.49-.66,7.97-.66,7.97ZM145.32,82.3c-.66,1.13-6.98,4.71-8.48,7.35s-2.06,4.9-2.3,8.58,1.92,10.12,1.83,12.09-1.76,11.34-9.79,11.74c0,0-1.71.73-1.24,0s3.68-2.61,4.53-4.78c.85-2.17,1.16-4.64,1-8.21s-2.23-7.44-2.13-11.3,1.89-9.14,5.28-11.78c3.39-2.64,9.05-5.66,12.73-5.85,0,0-.75,1.04-1.41,2.17ZM119.56,82.13l8.2-6.67c.41-.34,1.63,1.79,3.1,3.32,1.47,1.53,5.67,1.72,6.3,1.79.64.06.99.08.78.36-.21.28-3.25,1.06-4.1,1.77-.85.71-.71.85-.71.85h-4.73s-9.41-.35-9.76-.35.92-1.06.92-1.06ZM120.53,101.26c-.38-.65-2.73-15.28-2.73-15.75s.66-.57.66-.57h8.89s2.62-.19,3.18,0c.57.19.75.47.75.47,0,0-.57,1.23-1.41,2.26-.85,1.04-2.73,6.6-3.28,9.24-.55,2.64,0,5.94,0,5.94h-2.84c-1.51,0-2.83-.94-3.21-1.6ZM122.6,105.11l5.47.66s.75,3.39,0,7.64c-.75,4.24-3.3,6.51-3.96,6.66-.66.15-1.51-14.95-1.51-14.95ZM114.26,138.44s8.53-.42,10.28-.61c1.74-.19,8.77-1.13,11.22-1.51,2.45-.38,8.81-1.04,9.19-1.04h2.26v.57l-.33.61s-1.18,1.7-2.22,2.69c-1.04.99-3.39,3.77-4.05,4.34-.66.57-4.15,3.11-5,3.77s-4.1,4.05-4.1,4.05c0,0-.71.14-.85,0s-.14-.66-.42-1.12-1.65-1.23-2.9-1.33c-1.25-.09-1.3-.05-2,.14-.71.19-1.32,0-1.89.05-.57.05-.57.24-1.6,1.37-1.04,1.13-.8,2.22-.9,2.45-.09.24-.57.09-.85,0-.28-.09-4.67-3.87-5.19-4.53-.52-.66-8.67-8.67-8.86-8.91-.19-.24-.09-.94,0-.99.09-.05.71-.09.9,0,.19.09,7.31,0,7.31,0ZM106.95,110.87c.77-1.35.99.14.99.75s.42,7.26.42,7.26c0,0,.42,8.11.66,10.75.24,2.64.9,7.07.9,7.07h-4.83s-1.77-16.31-1.77-17.35-.19-1.84,0-2.17c.19-.33,3.63-6.32,3.63-6.32ZM93.89,109.25c.11-.11.6-.19.6-.19h7.81s3.08-.02,3.04.22c-.04.25,0,.49,0,.49,0,0-2.97,5.23-3.46,5.8-.49.57-.95.67-.95.67h-13.19s-.74-.11-.81-.21c-.07-.11.42-.25,1.52-.74,1.1-.49,2.51-1.84,3.56-2.76,1.05-.92,1.78-3.18,1.89-3.29ZM100.19,117.88s-3.75,6.93-3.96,7.17c-.21.25-.74.28-.74.28l-22.88.99s-2.33.18-2.34,0c-.01-.18.36-.78.36-.78l4.31-6.33c.17-.25.75-.28.75-.28,0,0,1.15.07,2.32,0,1.17-.07,2.97-1.06,2.97-1.06,0,0,18.95-.25,19.2-.15.25.11,0,.15,0,.15ZM91.63,109.17c1.04.52-.28,2.4-1.51,3.39-1.23.99-5.37,2.83-8.34,3.58-2.97.75-4.1.42-4.29.24-.19-.19,1.23-.57,1.93-.94.71-.38,3.58-2.59,4.81-3.39,1.23-.8,3.15-1.84,3.15-1.84,0,0,3.21-1.56,4.24-1.04ZM76.26,113.83c.33-.24,3.3-4.62,3.3-4.62,0,0,6.74-9.9,8.77-12.3,2.03-2.4,3.25-2.73,3.77-2.69.52.05.66.85.47,2.59-.19,1.74-1.79,4.81-4.62,9-2.83,4.2-5.61,5.37-5.61,5.37,0,0-6.13,3.54-6.41,3.39-.28-.14,0-.52.33-.75ZM72.26,94.13c.47-1.32,1.32-2.73,2.26-2.03.94.71,1.18,3.39,1.18,6.6s-.75,7.66-.75,7.66c0,0-1.18,7.75-1.65,8.13-.47.38-.9-.52-.9-.9s-1.51-5.42-1.51-9.29.9-8.86,1.37-10.18ZM58.92,106.37c-2.12-2.66-2.55-3.47-2.5-4.55.05-1.08.71-1.13,1.84-.99,1.13.14,4.67,2.22,7.12,4.29,2.45,2.07,4.62,7.68,4.62,7.68,0,0,.61,2.59,0,2.4-.61-.19-1.04-1.04-2.03-1.65-.99-.61-6.93-4.53-9.05-7.19ZM57.16,117.35l4.74-4.95c.24-.25,7.49,4.91,7.71,5.13.21.21-.28.32-.49.35-.21.04-11.91-.18-11.95-.35-.04-.18,0-.18,0-.18ZM48.75,127c.21-.28,6.58-7.81,6.72-7.85.14-.04.95-.07.95-.07h14.07s.48-.32.4,0c-.08.32.06.67.38.74.32.07.6.21.57.35-.04.14-4.63,6.26-4.63,6.26,0,0-.53.46-1.03.49-.49.04-17.43.67-17.43.67,0,0-.21-.32,0-.6ZM70.51,174.22c-.24.52-2.22.42-2.22.42,0,0-17.72.71-18.62.33-.9-.38-.66-1.37-.66-2.22s-.42-2.64-.61-5.19c-.19-2.55-.85-11.6-.94-13.58-.09-1.98-.38-23.66-.19-24.32s.66-.47.66-.47h9.05c1.7.24,7.64-.85,8.91-.47,1.27.38,1.18,2.17,1.18,3.82s1.04,12.07,1.37,15.18c.33,3.11,1.18,14.14,1.6,16.07.42,1.93.71,9.9.47,10.42ZM96.06,171.11c-.19.28-1.56.38-1.98.38s-5.99.19-6.6.28c-.61.09-.61.47-1.13.8-.52.33-9.99.8-11.45.8s-1.23.14-1.37-.33-.94-8.44-1.27-10.46c-.33-2.03-1.32-16.45-1.32-17.54s-1.56-14.99-1.46-15.56c.09-.57.57-.83.57-.83l1.56-.39s3.72-.09,4.67-.14c.94-.05,8.39-.42,9.47-.52,1.08-.09,7.54-.9,8.39-.52.85.38.71,2.31.71,2.31,0,0,.24,14.47.28,16.03s.42,19.37.66,21.21c.24,1.84.47,4.2.28,4.48ZM103.74,144.05c-.24,3.58-1.04,20.65-1.23,20.98-.19.33-1.84,1.23-2.26,1.6-.42.38-2.03,2.55-2.33,2.26-.3-.28-.69-3.25-.69-4.86s-.19-10.18.05-16.12c.24-5.94-1.08-19.66-1.16-19.99-.07-.33.12-.85.83-1.23.71-.38,2.78-3.96,2.78-3.96,0,0,1.51-3.21,1.84-3.21s0,1.84,0,2.78v3.44s.47,7.02,1.13,7.87c.66.85.61,1.23.85,2.78.24,1.56.42,4.05.19,7.64ZM150.46,137.83c-.05.94-.99,5.8-.99,6.4s-.33,7.98-.5,9.39c-.17,1.41-.06,7.78-.06,7.78,0,0,.14,5.89,0,6.36s-.38.38-1.23.52-7.68.38-8.91.38-8.77.38-10.37.26c-1.6-.12-4.24.54-5.47.49s-6.41.05-7.97.09c-1.56.05-9.8.28-10.32.24-.52-.05-.52-.82-.52-.82,0,0,.05-1.2.33-1.77.28-.57,0-1.93,0-3.35s.28-7.02.57-9.8c.25-2.44.5-6.35.55-7.25,0-.05,0-.09,0-.13,0,0-.04-5.11.29-5.21.33-.09,1.41,1.37,1.41,1.37,0,0,3.54,3.16,3.91,3.72.38.57,4.95,4.62,5.8,5.61.85.99,3.77,3.02,3.77,3.3s-1.04.71-1.41,1.08c-.38.38-4.2,3.54-4.53,3.87s-3.91,3.63-5.75,5-2.5,1.51-2.83,1.51-.8.66-.8.94.09.75.33,1.11c.24.36,2.26-.78,2.73-.92s2.88-2.36,3.16-2.69,3.91-3.49,3.91-3.49l4.53-3.87,1.27-.8s.05.38.75,1.46c.71,1.08,1.84,1.18,2.36,1.41.52.24,1.98,0,3.06.09,1.08.09,2.69-.19,3.31-.66s.93-1.98,1.12-1.98,1.84.99,3.44,1.74c1.6.75,5.85,3.82,7.92,5.23,2.07,1.41,3.06,2.03,3.82,2.17s.94-.75.94-1.04-.61-.75-1.32-1.08c-.71-.33-2.55-1.74-3.35-2.45s-3.72-2.5-4.05-2.73c-.33-.24-6.98-3.63-7.12-3.72-.14-.09-.28-.85-.47-1.13s-.14-.94-.14-.94c0,0,2.73-2.92,3.68-3.77.94-.85,5.85-4.62,5.85-4.62,0,0,2.78-2.59,4.2-4.05,1.41-1.46,1.89-3.02,2.64-3.77s1.41-1.93,1.56-2.22c.14-.28.99,0,.99,0l-.09.42c-.09.42.05,1.37,0,2.31ZM159.84,164.6c-.47.19-6.51.94-6.79.94s-1.7,0-1.64-.66c.05-.66.14-2.73.04-5.85-.09-3.11,0-10.84,0-13.39s.47-4.15.47-4.15c.21-.98,1.41,1.23,1.51,1.89.09.66,2.26,5.47,3.3,8.11s3.68,11.22,3.68,11.97-.09.94-.57,1.13ZM162.27,156.24c-.21.35-1.56,0-1.56,0,0,0-6.01-15.04-6.29-14.98s-.78-4.56-.78-4.56c0,0-.21-2.59-.57-3.09-.35-.49-2.52-.57-2.52-.57l-2.14.21s-3.25-21.55-3.46-22.94c-.21-1.39-1.06-9.8-.64-13.9.42-4.1,3.25-9.26,3.25-9.26,0,0,2.12-6.92,3.39-7.66,1.27-.75,3.01-.98,3.61-2.23s-.42-1.44.21-1.53c0,0,1.08.9,2.2.97,1.12.07,2.68.28,3.03,0,.35-.28.83-.41.83-.41l.75.56s-3.32,7.21-3.4,7.56c-.08.35-1.2,2.9-1.2,3.96s-1.28,11.03-1.28,14.99.92,23.63.92,23.63l4.97,27.84s.9,1.07.69,1.42ZM159.27,86.35s1.32,0,8.86.75c7.54.75,8.96,0,9.62,0h1.51s.09,4.15,0,5.94c-.09,1.79-.85,5-1.79,5.85-.94.85-2.92,1.23-3.77,1.51-.85.28-16.22,1.13-16.48.84-.26-.29-.4-2.63,0-5.46.4-2.83,1.58-7.35,1.58-7.35l.47-2.07ZM180.39,136.51c0,3.68-.28,13.76-.85,14.52-.57.75-5,3.02-5.85,3.39-.85.38-8.86.66-9.62,0s-1.7-5.66-2.17-8.77c-.47-3.11-3.02-19.99-3.49-21.97s-.66-7.45-1.04-14.9c-.38-7.45,0-5.37,0-5.37.17-.57,3.39-.57,3.39-.57h8.04c1.73,0,8.83-1.32,9.21-1.6.38-.28.85,2.92.85,3.86s1.41,10.09,1.51,13.58,0,14.14,0,17.82ZM179.73,83.9s-1.04,1.23-3.39,1.51c-2.36.28-12.63-.66-14.42-.56-1.79.1-1.51-.76-1.51-.76l2.17-6.51c.17-.51,6.69,3.49,9.33,4.34,2.64.85,5.19.47,6.41.38s2.26-.47,2.55-.19-1.13,1.79-1.13,1.79ZM181.71,85.41s3.04-3.91,4.38-4.84c1.34-.93,4.75-4.73,4.75-4.73.41-.45.34.42.77,1.7.42,1.28.99,7.35.99,8.27s-1.22,1.56-1.22,1.56c0,0-8.96,8.91-9.46,9.05s-.78-9.55-.78-10.06.57-.94.57-.94ZM193.59,145.77c0,.49-10.11,5.73-10.75,5.52-.64-.21.35-1.06.28-1.63s-.07-2.97-.07-2.97l-.28-17.46s-1.27-27.29-1.34-27.99c-.07-.69.49-2.35.49-2.35l7.92-7.28s2.19-1.91,2.76-1.77,0,2.33,0,3.46.71,7.99.99,15.41c.28,7.42,0,36.56,0,37.05ZM206.81,136.58c-.07.71-.42,1.06-.42,1.06,0,0-9.9,6.65-10.25,6.72-.35.07-.29-.49-.29-.49l-.06-3.04s.14-15.7,0-17.46c-.14-1.77-.49-27.51-.64-29.53s-2.12-16.78-2.55-18.1c-.42-1.32-.14-2,.78-4.31s.34-3.19.34-3.19l-.41-.37s1.63-1.63,1.84-1.63,1.06.42,1.34.92c.28.49,3.82,9.4,4.53,12.36s4.88,22.14,4.88,24.63.99,31.74.92,32.45ZM214.1,126.11c-.42,4.81-4.24,9.26-4.6,9.47-.35.21-.64.28-1.06,0-.42-.28,0-5.44,0-5.44,0,0,0-20.51-.99-27.58-.99-7.07-4.74-22.06-4.6-22.56s5.16-4.97,5.16-4.97l1.77-1.68s1.2-1.06,1.41-.85c.21.21,1.56,7.64,1.63,8.98.07,1.35.49,14.7.92,18.45.42,3.75.78,21.35.35,26.16Z" fill="#61130e"/><path d="M246.27,146.97c-1.2-1.34-6.72-2.62-7.42-3.11-.71-.49-2.26-.64-2.26-.64l.28-24.11s2.62-1.41,3.96-3.11c1.34-1.7,3.82-10.04,3.75-17.96-.07-7.92.78-16.05.42-16.97s-5.82-1.58-11.43-1.57c0,0-9.5,1.29-10.06,2-.57.7-.64,4.05-.42,4.57.21.52,4.17,23.43,5.87,26.89,1.7,3.46,4.22,4.81,4.62,5.16.4.35.82.64.82.64l-.57,24.89s-6.01,3.96-6.86,5.09c-.85,1.13-1.7,3.25-1.2,3.89s7.42,1.56,15.48-.35c8.06-1.91,6.22-3.96,5.02-5.3ZM226.33,82.13c.42-.49,6.72-1.13,6.72-1.13,2.12-.64,8.7.42,8.98.5.28.07.64.49,0,.95-.64.46-6.72,1.73-9.83,1.45-3.11-.28-5.66-.92-5.87-.99-.21-.07-.42-.28,0-.78ZM229.58,110.42c-.49-2.19-4.03-24.82-4.1-25.31-.07-.49.57-.78.57-.78,0,0,4.45.99,7.92,1.14,3.46.15,8.63-1.14,8.63-1.14l.42.42c.42.42,0,6.43,0,6.43,0,0-.42,11.81-1.27,15.7-.85,3.89-1.7,5.87-2.83,7.71s-2.19,1.87-2.19,1.87c-4.1.46-6.65-3.85-7.14-6.04ZM243.93,149.42c-.75.85-6.88,2.36-10.4,2.45-3.52.09-4.68-.19-5.16-.58s-.19-.74,0-1.3,5-4.05,5.96-4.71c.96-.66.81,0,.81,0,1.45-.45,7.46,1.6,8.05,2.07s1.48,1.23.73,2.07Z" fill="#61130e"/><path d="M241.39,97.69c-.14-.28-1.2-.21-3.89,0-2.69.21-2.69.14-4.81.28s-3.46-.99-3.89.28c0,0-.07-.21,0,1.48.07,1.7,1.77,9.55,1.98,10.25.21.71,1.84,4.17,2.62,4.6.78.42,2.19,1.34,3.32.64,1.13-.71,2.19-2.83,2.4-3.68.21-.85,2.05-6.29,2.26-8.34.21-2.05.14-5.23,0-5.52ZM232.2,107c-.26-.6.34-1.08.34-1.08.77-.56,1.29.13,1.29,1.08s-1.37.6-1.63,0ZM233.59,103.65c-.21-.49.28-.89.28-.89.64-.46,1.06.11,1.06.89s-1.13.49-1.34,0ZM236.4,110.22c-.13-.3.17-.54.17-.54.39-.28.64.07.64.54s-.69.3-.81,0Z" fill="#61130e"/><path d="M239.41,47.51c-.61.14-2.36.85-2.78,1.37-.42.52-.75,1.41-1.18,1.23-.42-.19-1.32-1.04-1.37-2.64-.05-1.6.28-2.22.38-2.5s1.23.19,2.69-.19c1.46-.38,2.97-1.93,2.64-3.44s-2.03-2.5-3.58-2.17c-1.56.33-2.26,1.51-2.69,1.93-.42.42-.47.75-.75.57s-1.46-1.93-.42-4.95c1.04-3.02,1.98-4.29,1.65-6.13s-1.18-3.11-2.78-3.87c-1.6-.75-2.73-.71-2.73-.71,0,0-1.65-.05-1.74.75-.09.8,1.46.9,1.74.9s2.17-.24,2.88,1.84c.71,2.07.75,2.88,0,4.48-.75,1.6-1.98,3.3-1.6,5.89.38,2.59,1.51,3.3,1.79,3.58s.39.52.36.75c-.03.24-1.21,3.58.68,5.94,1.89,2.36,2.12,2.26,2.17,2.55.05.28-.14,4.67.85,6.03.99,1.37,1.46,2.64,2.64,2.97,1.18.33,1.74.42,2.17.33.42-.09.05-.47-.28-.9-.33-.42-2.83-2.92-2.88-5.28s.33-2.31.33-2.31c0,0,1.89.61,3.02,0,1.13-.61,2.64-1.51,2.45-3.68s-3.02-2.5-3.63-2.36ZM235.5,41.53c.38-.38,1.37-.52,1.37-.52.83-.21,1.13,1.41.61,1.98-.52.57-1.32.38-1.72.38s-1.11-.38-1.11-.66.47-.8.85-1.18ZM239.74,52.13c-.33.14-1.84-.14-2.01-.57-.17-.42-.12-.9.21-1.51s1.08-.9,1.08-.9c1.7-.19,2.22.75,2.22,1.5s-1.18,1.33-1.51,1.47Z" fill="#61130e"/><path d="M37.94,165.92c-.24.05-2.07,1.37-2.69,1.7-.61.33-1.23,1.13-3.44.94-2.22-.19-2.73-.57-2.69-.99s.75-.61,1.23-1.89c.47-1.27.94-4.2-.61-6.18s-3.54-1.79-3.54-1.79c0,0-3.63.94-3.49,4.05s.52,4.05.9,4.43.85.71.75,1.18-1.98.09-1.98.09c0,0-1.51-.14-3.58-.99-2.07-.85-4.48-1.51-6.55-1.32,0,0-2.92.57-3.35,1.93s-.28,2.03.33,2.03.9,0,.94-.61.05-1.27.9-1.37c.85-.09,2.78-.19,4.71.47,1.93.66,3.91,1.7,5.66,1.93,1.74.24,3.3.33,3.91,0s.61-.57,1.23-.33c.61.24,2.36,1.32,4.71,1.51,2.36.19,5.56-.9,6.27-1.46.71-.57,1.6-1.27,1.51-2.12-.09-.85-.9-1.27-1.13-1.23ZM28.37,164.23c-.9,1.66-1.41,1.97-1.84,1.83s-1.87-1.83-1.85-3.18c0-.81.2-3,1.62-3.19.91-.12,2.17,1.13,2.45,1.65.28.52-.38,2.88-.38,2.88Z" fill="#61130e"/><path d="M105.11,77.94s-.67-.11-1.6-.26c.89-.82,1.56-1.45,1.56-1.45,0,0,1.04-.71.99-1.6-.05-.9-1.37-.9-1.51-.8-.14.09-.9.8-.9.8l-1.16,1.05c.18-1.5.31-2.67.31-2.84,0-.52.28-1.98-.75-1.6,0,0-.52.14-.57.8,0,0-.26,1.5-.58,3.38-.53-.79-.88-1.31-.88-1.31,0,0-1.18-1.37-1.74-.85l-.57.53s-.05.61,0,.84c.02.08.7,1.11,1.58,2.42-.53-.07-.95-.11-1.16-.11-.99,0-1.89.16-2.07.51-.19.34-.09,1.28.52,1.35.39.05,1.24-.03,2.45.01l-1.89,1.71s-.33.33-.33.75.19.8.57.8.51.33,2.23-.99c.12-.09.25-.2.39-.31-.21,1.27-.36,2.17-.36,2.24,0,.24-.24,1.81.61,1.85s1.27-1.19,1.32-1.61c.01-.13.13-1.11.29-2.42.9,1.32,1.59,2.32,1.59,2.32,0,0,.19.42.99.4.8-.02.99-.78.9-1.25-.04-.18-.79-1.37-1.72-2.79,1.29.35,2.07.68,2.23.62.24-.09.8-.1,1.04-.64.24-.54-.19-1.29-1.79-1.55Z" fill="#61130e"/><path d="M22.15,139.32s.56-.4,1.32-.95c-.05,1.21-.07,2.13-.07,2.13,0,0-.23,1.23.43,1.83.67.6,1.6-.33,1.63-.5.03-.17.07-1.2.07-1.2l.08-1.56c.93,1.18,1.67,2.1,1.79,2.22.37.37,1.2,1.6,1.67.6,0,0,.27-.47-.17-.97,0,0-.88-1.24-1.99-2.8.93.18,1.55.3,1.55.3,0,0,1.8.14,1.83-.64l.03-.77s-.4-.46-.6-.6c-.07-.05-1.28-.29-2.83-.59.43-.33.75-.6.9-.74.7-.7,1.22-1.45,1.11-1.82-.11-.38-.84-.97-1.32-.59-.31.24-.86.9-1.75,1.72l.13-2.54s0-.47-.3-.77-.7-.43-.97-.17-.59.12-.88,2.28c-.02.15-.04.32-.06.49-.75-1.04-1.28-1.79-1.33-1.84-.17-.17-1.11-1.45-1.74-.87s-.06,1.74.21,2.07c.08.1.69.88,1.5,1.92-1.57-.29-2.77-.52-2.77-.52,0,0-.43-.17-.98.42-.55.58-.15,1.25.25,1.52.15.1,1.52.41,3.18.76-1.16.66-1.95.98-2.02,1.14-.1.23-.49.64-.28,1.19.21.55,1.04.78,2.36-.17Z" fill="#61130e"/><path d="M199.04,152.61s.4.56.95,1.32c-1.21-.05-2.13-.07-2.13-.07,0,0-1.23-.23-1.83.43-.6.67.33,1.6.5,1.63.17.03,1.2.07,1.2.07l1.56.08c-1.18.93-2.1,1.67-2.22,1.79-.37.37-1.6,1.2-.6,1.67,0,0,.47.27.97-.17,0,0,1.24-.88,2.8-1.99-.18.93-.3,1.55-.3,1.55,0,0-.14,1.8.64,1.83l.77.03s.46-.4.6-.6c.05-.07.29-1.28.59-2.83.33.43.6.75.74.9.7.7,1.45,1.22,1.82,1.11.38-.11.97-.84.59-1.32-.24-.31-.9-.86-1.72-1.75l2.54.13s.47,0,.77-.3.43-.7.17-.97-.12-.59-2.28-.88c-.15-.02-.32-.04-.49-.06,1.04-.75,1.79-1.28,1.84-1.33.17-.17,1.45-1.11.87-1.74s-1.74-.06-2.07.21c-.1.08-.88.69-1.92,1.5.29-1.57.52-2.77.52-2.77,0,0,.17-.43-.42-.98-.58-.55-1.25-.15-1.52.25-.1.15-.41,1.52-.76,3.18-.66-1.16-.98-1.95-1.14-2.02-.23-.1-.64-.49-1.19-.28-.55.21-.78,1.04.17,2.36Z" fill="#61130e"/></svg>