<?xml version="1.0" encoding="UTF-8"?>
<svg id="Capa_1" xmlns="http://www.w3.org/2000/svg" version="1.1" viewBox="0 0 243.94 96.13">
  <!-- Generator: Adobe Illustrator 30.5.1, SVG Export Plug-In . SVG Version: 2.1.4 Build 3)  -->
  <path d="M.61,25.21c.6,6.02,5.01,12.02,5.56,12.51.54.5,4.08,3.87,4.14,4.42s-3.1,4.69-2.46,11.69c.64,6.99,4.26,13.46,10.57,18.7,6.31,5.24,20.44,6.24,21.48,6.06s6.01.35,12.84-2.53c6.84-2.89,23.45-10.76,23.45-10.76,0,0,10.55-3.94,15.24-4.91,4.69-.97,9.44-2.31,16.3-2.11,6.86.21,9.59.36,11.28.99,1.69.63,3.32,1.44,3.32,1.44,0,0,1.45.69,1.39.87s-1.09-.16-2.68.5-7.66,5.2-11,10.01-6.13,9.63-6.79,13.49c-.66,3.84-.63,6.47.39,7.94,1.01,1.46,3.9,3.68,6.89,2.69,2.98-.99,7.07-7.01,8.57-10.42,1.5-3.41,4.62-10.66,5.44-13.07s1.64-4.35,1.92-4.53c.27-.18.58-.41.88-.23.3.18,2.22.76,2.68.64.46-.11.95-.05,1.19.19.24.24,6.88,8.01,9.59,10.12s3.66,3.1,5.23,4.46c1.56,1.36,5.34,4.62,6.98,4.89s3.34.28,3.9-1.59c.57-1.87.83-7.88-4.14-13.89-4.97-6.01-6.93-8.22-9.77-9.65s-3.81-1.45-5.38-2.19c-1.57-.75-4.36-1.02-4.35-1.32s-.42-.19,1.05-1.81,4.32-5.35,12.45-5.92,11.54-1.07,16.2.81,12.19,5.92,18.82,9.7,17.19,8.95,22.27,10.42,15.01,3.41,19.78.67,9.25-6.45,10.53-11.77,1.25-7.82,1.1-10.43c-.15-2.61-3.37-7.2-3.37-7.2,0,0-.18-.24-.05-.73.13-.49,4.69-6.31,6.92-9.86s4.73-9.35,4.5-15.31c-.23-5.95-3.08-11.15-4.89-12.44-1.8-1.29-5.37-2.62-5.68-2.74-.3-.12-1.46-.32-1.65.71s.18.18,2.59,1.49c2.41,1.3,5.41,4.32,6.35,11.73.94,7.42-3.45,13.44-3.45,13.44,0,0-6.63,10.42-7.05,10.65s-.91-.19-.91-.19c0,0-3.71-3.75-9.07-3.57-5.34.17-8.94,1.23-10.98,3.62s-3.47,5.79-2.36,8.77,5.41,4.32,9,3.57c3.59-.75,8.43-4.03,9.17-4.38s4.71-3.46,4.71-3.46c0,0,.55-.35.85-.11s3.74,1.32,3.11,8.96c-.64,7.64-4.47,13.18-7.35,15.02s-7.69,3.3-10.78,3.03c-3.1-.28-6.3-.57-9.51-1.52s-17.16-6.28-22.7-9.93c-5.54-3.65-16.69-9.56-19.96-10.69s-10.18-1.53-14.56-1.03c-4.38.5-7.79,1.48-9.68,2.37-1.89.89-4.71,3.46-5.46,4.66s-3.76,4.68-4.25,4.81c-.49.11-1.82.28-1.82.28,0,0-1.21-.26-1.93-.75-.72-.5-4.62-4.19-12.63-4.65-8-.46-18.09.2-25.72,2.72-7.62,2.52-21.48,8.41-25.69,10.48s-13.01,6.7-20.48,6.49c-7.47-.21-13.96.19-20.52-4.87-6.56-5.06-9.45-11.59-10.07-15.24s1.33-9.45,1.95-10.06.8-.9.8-.9c0,0,6.37,4.81,10.26,5.05,3.88.23,8.63-.86,10.73-3.69s.99-6.67-1.65-8.82-5.23-3.71-8.52-3.45-6.82,1.92-9.09,3.65c-2.27,1.73-2.52,2.58-2.94,2.63s-1.47-.87-1.47-.87c0,0-6.58-6.15-6.75-11.86-.17-5.71-.24-10.02,2.85-14.42,3.09-4.39,6.96-8.29,7.39-8.71s3.19-2.08,3.13-2.39c-.06-.3-2.04-1.56-2.53-1.4-.49.15-5.94,3.79-9.47,9.32C1.27,15.04,0,19.22.59,25.23l.02-.02ZM227.43,42.84c-.12.3-5.89,4.54-5.89,4.54-1.65,1.01-5.62,3.21-8.36,3.42-2.73.21-4.47-2-4.51-3.28-.04-1.27,1.04-5.51,5.86-7.15s10.5.07,11.83.94c1.33.87,1.19,1.22,1.07,1.53ZM130.82,62.82c.18-.24,1.53-.68,5.14-.55s8.55,3.45,8.55,3.45c0,0,3.27,3.17,4.61,4.89,1.35,1.72,4.35,6.21,5.23,9.08.87,2.86.57,6.02.41,6.26s-.95.54-2.82-.21c-1.87-.75-4.93-3.73-5.98-4.56s-3.54-3.11-6.39-5.42-7.01-7.62-7.34-7.83c-.33-.21-.02-.82-.01-1.61s.11-1.34-.39-2.13-1.17-1.1-.98-1.35h0ZM129.34,64.17c.42-.02.81.65.68,1.8-.13,1.15-.95.69-.95.69-.61.05-.51-.98-.54-1.21-.03-.23.38-1.26.81-1.28ZM126.5,63.68c.09.3-1.19.72-1.68,1.13-.5.41-.94,2.21-1.22,3.06s-1.22,3.36-1.95,5.44-2.99,6.26-2.99,6.26c-.66,1.62-4.7,9.54-6.37,11.8-1.67,2.26-3.49,2.39-4.89,2.09-1.4-.29-1.78-.63-2.02-3.13s.54-4,1.79-7.14c1.25-3.14,4.11-8.08,8.14-12.83,4.04-4.75,8.64-6.29,9.7-6.71,1.07-.41,1.4-.28,1.49.02h-.01ZM14.31,41.52c.13-.67,3.75-4.26,8.98-5.17,5.23-.91,9.02,1.99,9.13,3.57.1,1.58.01,3.82-3.95,5.84-3.98,2.01-8.68-.11-8.68-.11-4.47-1.94-5.61-3.47-5.47-4.14h0Z" fill="#61130e" stroke="#61130e" stroke-miterlimit="10"/>
</svg>